<?xml version="1.0" standalone="no"?>
<!DOCTYPE svg PUBLIC "-//W3C//DTD SVG 20010904//EN"
 "http://www.w3.org/TR/2001/REC-SVG-20010904/DTD/svg10.dtd">
<svg version="1.0" xmlns="http://www.w3.org/2000/svg"
 width="300.000000pt" height="300.000000pt" viewBox="0 0 300.000000 300.000000"
 preserveAspectRatio="xMidYMid meet">
<metadata>
Created by potrace 1.11, written by Peter Selinger 2001-2013
</metadata>
<g transform="translate(0.000000,300.000000) scale(0.100000,-0.100000)"
fill="#000000" stroke="none">
<path d="M1705 2862 c-16 -11 -342 -333 -724 -715 l-694 -695 -28 -123 c-30
-131 -99 -434 -104 -459 -2 -8 -15 -67 -30 -130 -45 -187 -44 -188 122 -150
65 15 172 39 238 54 66 14 179 40 250 56 151 34 148 34 140 18 -4 -7 0 -6 7 4
8 9 32 19 53 22 37 6 96 62 748 714 515 515 710 716 718 741 45 136 -110 401
-327 562 -137 101 -300 146 -369 101z"/>
<path d="M997 733 c-10 -9 -9 -23 1 -23 5 0 9 7 9 15 0 17 -1 18 -10 8z"/>
<path d="M1064 713 c5 -29 -20 -51 -37 -34 -9 10 -9 12 2 9 7 -2 16 4 18 12 4
13 3 13 -6 0 -10 -13 -11 -13 -11 0 -1 12 -3 12 -14 -2 -10 -13 -15 -15 -24
-6 -7 7 -12 8 -12 3 0 -5 -7 0 -15 11 -14 18 -15 18 -8 0 6 -18 5 -18 -21 -1
-15 10 -29 15 -32 12 -3 -3 4 -8 15 -12 12 -3 19 -11 15 -16 -3 -6 -12 -5 -21
3 -12 10 -17 9 -28 -6 -12 -15 -14 -16 -18 -2 -4 15 -5 15 -3 1 0 -9 4 -15 8
-13 4 2 13 -5 20 -14 9 -13 17 -15 28 -8 15 9 13 11 -12 14 -15 1 -23 26 -8
26 6 0 9 -4 6 -8 -2 -4 11 -8 29 -8 18 0 31 5 28 10 -3 5 -1 6 6 2 6 -4 9 -12
5 -17 -3 -5 -10 -6 -16 -3 -7 5 -9 1 -5 -9 4 -11 2 -14 -9 -10 -8 3 -14 -1
-14 -9 0 -9 -11 -27 -25 -42 -26 -28 -33 -42 -15 -31 6 3 10 2 10 -3 0 -20
-26 -20 -27 0 -1 10 5 22 13 25 7 3 11 9 8 14 -6 10 -56 -25 -64 -45 -3 -8
-11 -6 -24 8 -17 17 -17 19 -2 13 11 -4 29 1 47 14 23 16 27 24 19 38 -5 10
-8 20 -6 22 2 2 -8 13 -22 23 -14 11 -22 14 -18 8 4 -6 -1 -11 -11 -11 -38 -1
-52 -5 -48 -11 2 -4 -3 -16 -11 -26 -9 -10 -13 -14 -10 -7 5 8 -2 10 -20 7
-16 -3 -23 -1 -19 6 3 5 1 10 -5 10 -7 0 -10 -7 -7 -14 4 -10 1 -13 -7 -10 -7
3 -18 -7 -24 -22 -10 -20 -10 -25 0 -22 7 3 13 11 13 19 1 8 7 13 14 11 7 -1
19 2 26 8 16 13 31 -18 16 -33 -6 -6 -5 -15 5 -24 18 -18 8 -36 -15 -28 -12 3
-17 -1 -17 -15 0 -11 6 -20 13 -20 7 0 13 -5 13 -10 0 -7 -6 -7 -18 -1 -11 6
-18 19 -17 33 2 18 7 22 25 20 19 -2 21 0 11 12 -10 12 -18 13 -38 3 -21 -10
-27 -8 -40 8 -13 19 -15 19 -24 3 -15 -26 -40 -23 -35 5 2 12 9 21 15 19 6 -1
11 4 11 10 0 9 3 8 10 -2 5 -8 12 -11 17 -7 16 17 -22 26 -45 11 -19 -13 -26
-13 -40 -2 -15 12 -16 11 -3 -4 17 -22 4 -23 -20 -2 -18 17 -39 12 -39 -9 0
-8 3 -7 9 2 5 7 14 10 21 6 14 -8 -21 -45 -48 -50 -9 -2 -19 -4 -22 -4 -3 -1
2 -5 10 -11 9 -5 19 -5 27 1 8 8 19 6 35 -5 12 -9 17 -16 11 -16 -7 0 -15 5
-18 10 -3 6 -11 10 -16 10 -6 0 -8 -4 -5 -8 2 -4 -6 -8 -20 -8 -13 0 -24 5
-24 11 0 5 -4 3 -10 -5 -6 -9 -5 -17 3 -22 7 -5 2 -7 -12 -5 -14 2 -28 13 -33
26 -5 14 -4 20 2 16 6 -3 10 -14 10 -23 0 -13 2 -14 13 -3 10 10 9 15 -4 24
-9 7 -14 19 -12 27 4 12 3 12 -5 2 -5 -8 -13 -13 -17 -13 -5 1 -10 -5 -11 -14
-1 -8 2 -12 8 -9 6 4 8 3 5 -3 -4 -6 0 -19 8 -29 8 -10 14 -23 15 -29 0 -5
-10 5 -22 23 -12 19 -26 31 -34 28 -7 -3 -16 -1 -19 4 -4 6 -11 10 -16 10 -6
0 -7 -4 -4 -10 3 -5 -1 -10 -10 -10 -9 0 -13 5 -10 10 3 6 1 10 -4 10 -6 0
-11 -5 -11 -11 0 -8 -6 -7 -17 2 -14 11 -14 9 1 -9 11 -12 26 -20 33 -18 7 3
15 1 18 -5 4 -5 1 -8 -6 -7 -6 2 -13 -2 -16 -9 -3 -7 4 -10 19 -7 21 4 21 4 3
-5 -23 -10 -35 -5 -35 15 0 8 -5 14 -11 14 -5 0 -7 -5 -3 -12 4 -7 3 -8 -4 -4
-6 4 -21 2 -32 -4 -16 -9 -18 -8 -14 5 3 8 9 13 13 11 4 -3 13 -1 20 4 11 6 9
10 -8 19 -17 9 -21 9 -19 -1 2 -7 -5 -12 -14 -12 -10 1 -15 -3 -11 -9 4 -6 0
-8 -10 -4 -10 4 -17 2 -17 -4 0 -6 9 -9 19 -6 14 3 18 1 14 -9 -3 -8 -10 -11
-17 -7 -8 4 -8 2 1 -7 6 -7 9 -20 6 -29 -4 -13 -3 -14 5 -1 6 8 8 18 6 22 -5
7 10 12 29 9 4 0 7 4 7 9 0 6 7 6 18 -1 19 -12 26 -39 10 -39 -4 0 -8 7 -8 15
0 18 -12 19 -28 3 -18 -18 -15 -33 4 -18 12 11 15 11 12 -1 -2 -9 4 -13 17
-11 20 3 20 2 1 -13 -21 -16 -11 -21 13 -6 7 5 11 13 8 18 -3 5 -2 15 4 23 6
11 9 12 9 2 0 -7 4 -11 9 -8 16 10 20 -23 5 -39 -22 -22 -8 -18 26 7 23 16 32
19 43 10 8 -7 16 -9 20 -6 3 3 4 -1 3 -10 -1 -8 -6 -19 -11 -23 -4 -4 -5 -2
-1 5 5 8 2 11 -6 10 -7 -2 -12 3 -10 10 2 14 -7 15 -27 3 -11 -7 -9 -10 8 -16
12 -4 19 -11 15 -18 -4 -7 -4 -9 1 -5 4 4 15 2 23 -5 11 -8 14 -8 9 0 -4 7 1
14 13 18 11 3 20 11 20 16 0 5 5 9 11 9 8 0 8 -4 0 -14 -8 -10 -9 -16 -1 -21
5 -3 10 -2 10 3 0 6 8 13 18 17 13 5 14 3 5 -6 -6 -6 -9 -18 -6 -25 3 -8 0
-14 -7 -14 -6 0 -9 4 -6 8 3 5 -1 9 -9 9 -8 0 -15 -4 -15 -9 0 -4 5 -8 11 -8
8 0 7 -6 -2 -17 -12 -14 -10 -14 14 1 25 17 32 15 28 -8 -1 -5 5 -4 13 3 16
13 12 36 -4 26 -10 -6 -4 35 6 44 4 3 4 -2 1 -11 -3 -10 -2 -20 3 -23 4 -3 10
-1 12 4 1 5 12 3 23 -6 20 -15 20 -15 0 -9 -16 5 -21 1 -21 -13 0 -14 7 -18
23 -16 13 1 26 -2 29 -6 3 -5 0 -9 -5 -9 -21 0 -11 -16 11 -17 17 -2 19 0 8 7
-10 6 -5 9 18 8 33 -1 46 -17 15 -19 -15 0 -15 -2 2 -8 11 -5 25 -4 33 1 7 6
12 6 12 1 0 -5 -6 -15 -12 -23 -11 -12 -10 -12 4 -2 13 10 17 10 22 0 3 -7 3
-2 -1 12 -5 23 -5 24 13 10 18 -14 18 -14 5 3 -8 9 -11 20 -8 23 3 4 0 13 -8
21 -8 8 -15 19 -15 24 0 5 17 -9 39 -31 21 -22 42 -40 47 -40 4 0 3 5 -4 12
-15 15 -15 28 -1 28 5 0 8 -4 5 -9 -3 -5 1 -14 9 -21 13 -11 15 -9 13 11 -3
27 23 34 29 9 4 -13 3 -13 -6 0 -12 17 -24 9 -16 -12 11 -28 41 -16 36 14 0 5
3 8 8 8 5 0 9 -11 9 -24 0 -19 -5 -23 -20 -21 -10 2 -16 0 -14 -4 3 -4 -1 -8
-9 -8 -8 0 -11 5 -8 10 3 6 1 7 -6 3 -17 -11 6 -37 26 -29 9 4 14 2 10 -3 -3
-5 3 -10 14 -10 18 0 18 2 5 12 -20 14 -20 21 -1 21 8 0 15 -3 15 -7 0 -3 7
-15 15 -26 14 -18 15 -18 9 0 -6 16 -5 17 16 6 15 -8 20 -8 16 -1 -4 6 -2 11
4 11 6 0 10 6 8 12 -1 7 3 23 10 35 8 14 9 23 3 23 -13 0 -42 -55 -34 -64 4
-3 1 -6 -6 -6 -7 0 -11 6 -8 13 2 6 0 20 -5 29 -5 12 -5 18 2 18 5 0 10 -6 10
-12 0 -7 6 -4 13 7 16 24 20 65 6 65 -5 0 -9 -4 -9 -9 0 -17 -34 -22 -49 -6
-9 9 -11 15 -4 15 6 0 13 -6 16 -12 3 -9 10 -8 23 6 16 16 16 18 3 13 -9 -3
-26 3 -37 13 -11 10 -23 16 -28 12 -4 -4 -4 -1 0 6 6 10 11 11 23 0 8 -6 20
-13 27 -14 6 -1 20 -5 31 -9 19 -7 19 -7 4 9 -9 10 -22 19 -30 20 -8 2 -23 7
-33 11 -13 6 -23 3 -32 -10 -8 -10 -14 -14 -14 -9 0 6 5 15 12 22 8 8 8 15 -3
28 -8 10 -9 15 -2 11 6 -4 13 -4 16 0 2 5 2 2 1 -4 -3 -13 34 -39 50 -35 5 2
17 -5 28 -15 22 -19 71 -26 65 -8 -3 5 -14 9 -26 8 -13 -2 -20 1 -16 7 3 6 13
10 21 10 16 0 19 16 5 25 -5 3 -8 26 -7 51 1 25 -3 52 -9 61 -9 12 -5 21 17
45 16 17 26 33 24 35 -6 6 -47 -22 -43 -28 2 -2 -5 -12 -15 -21 -10 -10 -18
-16 -18 -13 0 11 38 66 45 65 4 -1 15 9 24 22 9 13 21 24 26 25 20 3 11 -40
-13 -64 -13 -13 -21 -27 -17 -31 3 -4 14 4 24 17 10 13 23 21 30 17 19 -12 25
24 6 38 -17 12 -16 13 5 11 16 -1 24 -8 25 -23 1 -12 -2 -22 -7 -22 -5 0 -4
-9 2 -20 6 -11 15 -20 21 -20 6 0 6 7 -1 20 -8 15 -8 20 2 20 10 0 10 2 -1 9
-9 6 -10 11 -2 15 6 4 9 11 6 16 -3 5 0 12 7 16 17 11 48 13 42 3 -2 -4 1 -11
7 -15 8 -5 9 -3 4 6 -5 9 -4 11 4 6 6 -4 9 -12 6 -17 -11 -16 7 -10 22 9 8 9
12 12 9 5 -8 -15 10 -27 19 -13 4 7 11 7 18 2 7 -5 20 -8 30 -7 9 2 15 0 12
-4 -2 -4 2 -8 10 -8 8 0 11 5 8 10 -3 6 -1 7 6 3 6 -4 9 -11 6 -16 -3 -4 2
-10 10 -14 8 -3 12 -12 9 -21 -3 -8 -1 -15 6 -15 6 0 9 4 5 9 -3 5 0 13 6 17
8 4 9 3 5 -5 -4 -6 -4 -11 1 -10 4 1 15 1 23 0 12 -1 12 -3 2 -10 -11 -7 -10
-9 3 -14 10 -5 14 -3 9 5 -4 6 -3 8 4 4 6 -3 9 1 7 11 -4 26 5 36 21 22 7 -6
12 -15 9 -19 -3 -5 -1 -11 5 -15 5 -3 10 2 10 11 0 10 3 14 7 10 11 -10 11
-76 1 -76 -5 0 -6 -5 -2 -11 4 -8 9 -7 15 2 5 8 9 9 9 3 0 -6 -8 -18 -17 -25
-15 -12 -16 -12 -8 1 4 8 5 12 0 8 -4 -4 -15 -2 -23 5 -13 10 -15 9 -8 -3 4
-8 0 -6 -10 5 -14 17 -16 17 -11 3 9 -25 0 -22 -14 3 -9 17 -8 20 2 14 8 -5
10 -4 5 3 -11 18 -29 14 -22 -4 4 -10 2 -13 -7 -9 -6 4 -4 0 6 -8 12 -10 14
-17 8 -22 -6 -3 -11 -3 -11 2 0 4 -8 18 -18 31 -17 22 -18 22 -19 3 -1 -11 4
-20 10 -18 7 1 11 -6 11 -15 -1 -10 3 -16 10 -15 6 1 10 -4 8 -11 -1 -9 2 -11
10 -6 10 6 11 5 1 -8 -7 -8 -9 -19 -5 -24 4 -4 -1 -2 -10 5 -10 7 -18 9 -18 5
0 -16 34 -30 65 -29 29 2 31 0 30 -36 0 -20 -4 -35 -9 -31 -5 3 -6 0 -3 -5 5
-7 -6 -10 -29 -7 -34 3 -36 2 -18 -12 11 -9 12 -12 4 -8 -13 7 -13 6 0 -11 8
-11 10 -16 3 -11 -9 5 -11 2 -7 -11 5 -15 4 -16 -5 -3 -8 12 -11 12 -11 1 0
-10 -4 -11 -12 -3 -7 6 -17 10 -22 9 -5 -1 -10 6 -12 17 -4 29 -22 42 -36 27
-11 -10 -8 -16 12 -32 15 -11 18 -17 8 -13 -21 7 -24 -6 -6 -24 9 -9 9 -12 0
-12 -7 0 -17 11 -22 25 -5 14 -15 25 -22 25 -9 0 -9 -3 0 -12 7 -7 12 -16 12
-22 0 -5 -7 -1 -15 10 -13 16 -16 17 -25 4 -9 -13 -10 -13 -10 0 0 13 -1 13
-11 0 -8 -12 -9 -11 -5 6 5 17 2 20 -24 20 -17 0 -29 -4 -27 -10 2 -6 11 -10
21 -8 18 3 22 -13 4 -24 -7 -5 -8 -3 -3 7 8 12 6 12 -8 0 -9 -7 -17 -10 -17
-5 0 4 -5 3 -12 -4 -15 -15 -31 -16 -22 0 4 6 3 8 -4 4 -6 -3 -13 -2 -17 4 -4
6 -11 8 -16 5 -5 -4 -9 -1 -9 4 0 6 -7 11 -15 11 -8 0 -15 -5 -15 -11 0 -5 4
-8 9 -4 5 3 13 0 17 -6 5 -8 3 -9 -6 -4 -9 6 -11 4 -6 -6 4 -8 -1 -4 -12 8
-19 22 -20 22 -37 3 -9 -10 -26 -17 -37 -15 -15 3 -17 1 -9 -9 7 -9 7 -16 -1
-24 -7 -7 -8 -12 -2 -12 5 0 15 9 22 20 7 11 17 20 24 20 6 0 3 -9 -7 -20 -17
-18 -17 -20 -2 -14 16 6 21 17 18 37 -1 10 7 9 30 -4 15 -8 17 -14 10 -23 -8
-9 -7 -13 4 -13 8 0 13 3 10 5 -3 3 4 12 16 20 11 8 23 11 27 7 3 -3 0 -10 -8
-15 -8 -5 -11 -12 -7 -16 4 -4 13 1 21 11 16 22 66 29 66 9 0 -8 -7 -11 -17
-7 -10 3 -15 3 -12 -1 4 -4 15 -8 27 -11 16 -3 19 1 15 18 -3 13 -1 18 4 12
11 -14 33 -17 33 -4 0 5 6 7 13 3 8 -5 8 -2 -2 9 -17 21 -3 22 20 1 10 -9 15
-23 13 -32 -4 -13 -2 -13 10 2 9 11 16 16 16 10 0 -5 4 -3 9 5 7 12 13 12 24
3 7 -7 17 -9 21 -5 10 10 36 13 36 4 0 -4 18 -7 41 -7 35 0 38 2 23 13 -11 8
-23 9 -34 3 -10 -5 -20 -6 -24 -3 -10 10 -7 20 7 20 6 0 17 2 22 3 6 2 22 -2
37 -10 23 -11 26 -16 17 -34 -10 -20 -10 -20 5 -2 9 10 13 22 11 27 -3 4 -1
10 5 14 10 6 13 -5 11 -35 0 -10 1 -11 5 -2 3 6 11 9 17 6 8 -5 8 -2 0 7 -20
21 -15 34 5 16 10 -10 22 -14 25 -10 4 3 7 1 7 -5 0 -7 5 -12 11 -12 8 0 7 5
-1 15 -7 9 -10 19 -6 22 4 4 11 1 16 -6 4 -8 21 -15 37 -17 23 -2 25 -1 10 7
-9 6 -22 7 -27 4 -6 -3 -10 -2 -10 4 0 20 21 22 47 6 14 -9 23 -13 19 -7 -3 5
1 12 9 16 8 3 19 -2 24 -11 7 -14 10 -13 16 6 3 11 11 19 16 15 5 -3 7 -10 4
-15 -4 -5 -1 -9 5 -9 7 0 10 6 7 14 -3 8 1 20 10 28 14 11 15 10 8 -12 -7 -23
-7 -23 9 -7 18 18 41 24 31 8 -3 -5 2 -17 12 -26 16 -16 17 -16 29 0 7 9 10
23 7 31 -3 9 2 14 13 15 25 2 26 2 49 -6 12 -4 15 -3 8 2 -16 11 -20 45 -7 50
7 2 11 -4 10 -14 -1 -13 5 -17 22 -16 12 2 22 0 22 -3 0 -12 -31 -35 -49 -37
-16 -1 -18 -4 -8 -16 10 -12 9 -14 -6 -8 -11 4 -16 3 -12 -3 3 -6 2 -10 -3
-10 -15 0 -23 -28 -10 -36 7 -4 8 -3 4 4 -4 6 5 18 19 28 13 9 22 20 19 25 -3
5 0 9 7 9 7 0 23 10 36 22 l23 21 -30 22 c-16 12 -27 25 -23 29 4 4 0 4 -8 1
-9 -3 -21 1 -28 9 -22 26 36 13 59 -14 25 -29 26 -13 1 17 -10 12 -27 22 -37
23 -70 3 -84 5 -81 15 2 5 16 9 30 9 15 -1 24 3 21 7 -3 5 0 9 5 9 6 0 11 -7
11 -15 0 -8 5 -15 11 -15 5 0 7 5 4 10 -4 6 -1 17 5 25 10 11 10 15 1 15 -7 0
-9 5 -6 10 7 11 4 12 -39 14 -16 1 -32 8 -34 15 -3 10 0 11 9 5 12 -6 12 -5 1
8 -8 11 -26 15 -58 13 -30 -2 -44 1 -41 9 2 6 11 10 21 8 20 -4 20 6 -1 30
-10 11 -12 18 -4 18 6 0 14 -7 17 -15 4 -8 11 -12 16 -9 5 4 25 -10 44 -30 36
-38 47 -44 38 -23 -3 8 4 13 17 14 16 2 18 -1 10 -11 -9 -10 -8 -15 3 -19 9
-4 18 -2 21 3 4 6 11 10 17 10 6 0 3 -9 -7 -20 -23 -26 -15 -26 15 0 29 25 49
26 27 2 -20 -21 -23 -40 -4 -20 40 42 40 46 14 77 -14 17 -28 27 -31 24 -3 -4
-6 2 -7 13 0 12 -2 14 -6 5 -3 -7 9 -26 28 -42 18 -15 30 -31 26 -35 -9 -10
-80 64 -72 76 3 5 2 17 -3 26 -6 12 -9 5 -9 -25 0 -22 3 -39 6 -37 3 2 17 -7
31 -20 30 -29 17 -31 -28 -4 -18 11 -30 25 -27 31 4 5 1 16 -5 24 -9 11 -9 15
-1 15 6 0 11 5 11 11 0 8 -5 7 -15 -1 -14 -12 -15 -10 -11 13 2 15 7 31 11 36
3 6 -4 15 -16 21 -12 7 -19 8 -15 2 3 -6 0 -13 -6 -16 -7 -3 -2 -3 11 0 16 4
21 3 17 -5 -13 -21 -15 -55 -5 -68 7 -8 8 -13 1 -13 -15 0 -28 23 -26 48 1 12
-1 20 -4 17 -3 -2 -13 5 -23 17 -11 11 -19 16 -19 9 0 -7 -5 -9 -10 -6 -6 4
-7 11 -4 17 4 7 2 8 -5 4 -7 -5 -9 -12 -3 -19 5 -7 10 -20 11 -29 3 -40 5 -47
12 -42 4 2 11 -1 14 -7 5 -7 -1 -9 -15 -7 -14 2 -24 11 -26 22 -1 10 -9 23
-16 27 -10 7 -10 9 0 9 6 0 12 5 12 10 0 6 -11 3 -25 -6 -31 -20 -33 -3 -2 20
20 15 20 16 1 7 -12 -6 -25 -7 -29 -3 -5 4 -5 2 -2 -4 7 -12 -39 -84 -53 -84
-15 0 -12 17 5 24 9 3 12 12 8 22 -4 11 -3 15 5 10 6 -3 14 -1 17 5 11 17 -3
23 -21 8 -15 -12 -16 -12 -10 8 7 22 -8 41 -19 23 -4 -6 -11 -7 -17 -4 -7 4
-8 2 -4 -4 4 -7 3 -12 -3 -12 -5 0 -11 6 -14 13 -2 6 -8 8 -13 4 -5 -4 -2 -12
6 -17 8 -6 12 -10 8 -11 -5 -1 -12 -3 -18 -4 -5 -1 -15 -3 -21 -4 -5 0 -8 -5
-5 -10 3 -5 -1 -11 -9 -14 -9 -4 -12 -1 -9 7 3 8 1 17 -5 21 -6 3 -11 11 -11
17 0 6 6 6 15 -2 13 -10 18 -11 28 -1 9 10 8 11 -6 5 -13 -4 -16 -2 -11 9 3 8
1 18 -5 22 -7 3 -8 0 -5 -9 4 -11 0 -14 -15 -11 -11 2 -31 -5 -46 -16 -14 -11
-25 -16 -25 -11 0 6 11 19 25 29 19 14 22 21 14 33 -9 13 -10 13 -6 0 2 -8 -6
-23 -19 -32 -25 -20 -44 -23 -44 -7 0 6 -9 8 -22 4 -22 -6 -22 -5 -4 9 18 14
18 15 -2 13 -11 0 -20 -5 -19 -10 1 -5 -4 -12 -11 -14 -6 -3 -10 1 -9 9 2 7 2
9 -1 5 -2 -4 -16 0 -30 9 -22 15 -25 15 -14 2 10 -12 10 -18 1 -23 -8 -6 -7
-10 2 -17 11 -8 11 -9 -1 -5 -8 2 -15 12 -15 23 0 21 -20 25 -47 12 -12 -6
-18 -5 -18 3 0 6 -9 1 -20 -12 -19 -22 -20 -22 -18 -4 2 11 8 24 13 28 6 5 4
7 -5 4 -8 -2 -14 -10 -12 -16 1 -6 -1 -11 -5 -12 -5 0 -16 -2 -26 -4 -13 -2
-17 1 -13 11 6 15 -15 15 -26 -1 -5 -6 -11 -5 -17 4 -7 11 -11 9 -20 -8 -7
-11 -17 -21 -23 -21 -7 0 -7 4 0 13 6 7 6 20 1 32 -9 19 -9 18 -5 -2z m230
-28 c-6 -15 22 -39 35 -31 6 4 8 13 4 21 -6 17 12 21 22 5 3 -5 20 -8 36 -6
19 2 33 -1 36 -10 3 -8 9 -12 13 -9 5 3 12 0 15 -5 5 -8 12 -7 23 3 25 21 46
32 39 20 -4 -6 0 -14 9 -17 10 -4 13 -13 9 -27 -5 -16 -3 -20 12 -17 10 2 23
10 28 19 9 16 11 16 25 1 13 -14 12 -15 -5 -9 -20 7 -20 7 -1 -8 21 -16 16
-32 -6 -19 -22 14 -43 15 -29 1 19 -19 12 -31 -7 -14 -10 10 -22 14 -27 10 -4
-5 -5 -2 -1 5 4 7 -7 4 -25 -7 -18 -11 -34 -27 -35 -36 -1 -8 2 -13 7 -9 5 3
7 10 4 15 -4 5 -2 9 4 9 19 0 21 -19 4 -29 -10 -6 -13 -11 -6 -11 6 0 10 -8 8
-17 -1 -10 4 -28 12 -41 l14 -23 -28 17 -28 16 25 -21 c24 -21 24 -22 6 -36
-10 -8 -22 -12 -27 -10 -4 3 -11 0 -15 -6 -5 -8 -3 -9 6 -4 9 6 11 4 5 -5 -6
-9 -4 -11 6 -5 8 5 5 -2 -6 -16 l-20 -24 23 19 c12 11 23 17 25 15 1 -2 11
-15 22 -28 11 -14 14 -21 6 -16 -10 6 -12 4 -6 -5 5 -9 4 -11 -3 -6 -8 5 -10
1 -6 -11 6 -15 4 -15 -10 2 l-16 20 6 -20 c4 -12 3 -15 -3 -8 -6 8 -13 8 -27
-3 -14 -10 -16 -14 -5 -14 12 0 12 -2 -1 -11 -13 -9 -12 -10 3 -5 12 4 16 2
11 -6 -4 -7 -3 -8 5 -4 9 6 9 11 0 22 -16 20 0 17 24 -4 15 -12 18 -13 12 -2
-8 13 -7 13 11 0 18 -14 18 -14 4 5 -14 19 -14 19 4 5 14 -11 18 -11 12 -2 -7
11 -4 12 13 3 20 -11 25 -8 22 12 -1 4 9 2 21 -4 31 -17 87 -21 67 -5 -20 16
-21 33 -3 40 11 4 15 2 11 -8 -3 -8 4 -22 15 -33 14 -11 18 -13 13 -3 -15 25
-15 47 -1 47 10 0 13 -11 11 -34 -2 -30 -15 -61 -15 -36 0 6 -11 11 -25 11
-13 0 -22 -5 -19 -10 4 -6 -4 -5 -16 2 -15 8 -25 9 -32 2 -6 -6 -17 -8 -24 -5
-8 3 -17 -2 -20 -11 -6 -15 -8 -15 -23 -2 -18 17 -29 18 -52 5 -10 -5 -23 -3
-35 5 -26 19 -36 20 -44 6 -5 -7 -7 1 -7 18 1 22 6 29 18 27 9 -2 30 9 46 23
16 15 22 21 13 15 -25 -19 -28 -16 -26 25 1 36 0 37 -35 36 -35 0 -42 8 -26
33 4 6 3 14 -3 18 -6 4 -8 10 -6 14 6 9 46 8 62 -2 16 -9 48 28 38 45 -5 7 -9
24 -9 38 0 29 -13 52 -25 45 -4 -3 -13 2 -20 10 -10 12 -16 13 -26 4 -8 -6
-11 -16 -8 -21 4 -6 -4 -4 -17 3 -13 7 -27 13 -31 14 -4 0 -14 9 -22 20 -9 13
-26 20 -45 20 -30 0 -40 18 -13 22 8 1 16 3 18 6 9 9 32 3 28 -8z m346 -26
c-23 -17 -23 -20 -8 -29 9 -6 15 -17 12 -24 -11 -29 19 -29 44 0 29 33 44 37
69 18 17 -12 16 -13 -9 -12 -16 1 -28 7 -28 13 -1 5 -9 -3 -18 -20 -17 -30
-32 -39 -64 -37 -10 0 -18 -5 -18 -11 0 -7 -4 -6 -10 3 -9 13 -11 13 -19 0 -7
-10 -5 -20 6 -32 9 -10 11 -18 6 -18 -17 0 -35 28 -28 41 6 8 2 8 -12 0 -11
-6 -23 -7 -27 -4 -3 3 -6 1 -6 -6 0 -7 -6 -11 -13 -8 -8 3 -14 -1 -14 -8 0 -8
7 -11 15 -7 11 4 13 2 6 -9 -13 -21 -14 -39 -2 -39 6 0 7 8 4 18 -5 14 -4 14
9 -2 8 -11 15 -14 15 -7 0 7 5 9 11 5 8 -4 7 -9 -2 -15 -7 -4 -16 -6 -20 -3
-11 6 -18 -22 -13 -50 3 -17 0 -26 -8 -26 -10 0 -10 -2 0 -9 8 -4 13 -11 13
-15 -1 -3 2 -6 7 -7 4 0 15 -8 25 -16 9 -9 17 -12 17 -8 0 5 5 4 11 -2 6 -6
17 -9 24 -7 6 3 12 -2 12 -11 0 -18 -11 -19 -29 -2 -7 6 -19 13 -26 14 -6 2
-18 4 -24 5 -7 2 -23 18 -36 36 -12 17 -27 32 -32 32 -5 0 2 11 16 25 19 19
23 29 15 39 -6 7 -8 16 -4 19 3 4 2 7 -4 7 -11 0 -11 45 0 56 4 4 1 14 -6 22
-9 13 -9 14 1 8 6 -4 12 -3 12 3 0 12 27 8 41 -6 6 -6 18 -9 25 -6 12 4 12 8
2 22 -11 14 -11 14 2 5 8 -6 23 -11 32 -11 13 0 15 4 7 19 -5 10 -6 18 -2 18
4 0 2 5 -5 12 -9 9 -6 17 15 34 16 12 30 20 33 17 3 -2 -6 -13 -20 -24z m-816
0 c12 19 27 1 16 -19 -7 -13 -7 -21 0 -25 5 -3 10 -1 10 6 0 7 3 10 6 6 11
-10 -6 -26 -22 -20 -9 3 -13 13 -9 27 6 21 6 21 -9 2 -9 -11 -16 -14 -16 -8 0
7 -4 12 -8 12 -4 0 -8 -9 -8 -20 0 -11 5 -19 12 -16 6 2 17 0 25 -5 9 -6 3 -8
-19 -5 -22 2 -35 -2 -42 -13 -7 -13 -9 -12 -7 6 0 12 5 19 11 16 5 -4 7 1 3
10 -8 21 33 63 44 46 5 -8 8 -8 13 0z m1016 -32 c0 -6 -10 -2 -22 9 -22 19
-23 19 -8 -1 8 -11 23 -26 33 -33 22 -17 22 -33 0 -25 -15 6 -16 5 -3 -9 13
-13 16 -13 31 6 16 20 17 20 17 -5 0 -17 -6 -25 -18 -26 -20 -2 -57 33 -47 43
4 4 -2 18 -13 31 -10 13 -16 31 -13 39 5 13 8 12 24 -2 11 -9 19 -22 19 -27z
m-176 8 c4 -13 2 -14 -14 -5 -23 13 -26 20 -6 20 8 0 16 -7 20 -15z m91 -53
c10 -14 14 -22 8 -19 -6 4 -16 0 -23 -8 -7 -8 -24 -12 -41 -10 -26 3 -28 1
-18 -11 7 -9 8 -14 1 -14 -6 0 -16 8 -21 18 -8 13 -10 14 -11 2 0 -13 -1 -13
-10 0 -6 10 -10 11 -10 3 0 -23 -2 -28 -12 -41 -8 -9 -8 -16 0 -24 7 -7 12
-17 12 -22 -1 -6 -9 -1 -19 11 -23 28 -36 7 -15 -22 22 -29 16 -43 -7 -16 -11
13 -18 30 -15 37 5 13 -10 29 -29 29 -13 0 -14 28 0 37 5 4 20 -2 32 -14 28
-27 51 -14 26 15 -16 19 -16 20 -1 14 10 -3 20 -2 23 3 3 5 14 7 25 5 11 -2
20 1 20 6 0 6 4 7 10 4 5 -3 15 5 21 18 14 30 30 30 54 -1z m-1197 -24 l-23
-18 24 3 c16 1 25 -4 26 -15 2 -10 -1 -18 -7 -18 -6 0 -7 7 -4 16 5 12 2 15
-10 10 -22 -8 -48 13 -35 28 6 7 19 12 31 12 20 0 20 -1 -2 -18z m246 -17 c-2
-2 -10 2 -19 9 -12 10 -15 10 -15 0 0 -8 -2 -11 -5 -8 -3 3 -3 12 1 21 5 14 7
14 23 -1 10 -9 16 -19 15 -21z m47 -5 c-8 -9 -1 -21 29 -49 26 -23 38 -42 34
-52 -3 -8 -1 -15 5 -15 6 0 11 5 11 11 0 5 5 7 11 3 8 -5 6 -10 -5 -16 -19
-11 -38 -2 -34 16 2 7 -13 29 -34 49 -32 33 -35 40 -25 62 7 13 14 20 15 14 2
-5 -1 -15 -7 -23z m-201 4 c0 -5 -4 -10 -10 -10 -5 0 -10 5 -10 10 0 6 5 10
10 10 6 0 10 -4 10 -10z m286 -8 c1 -7 0 -8 -3 -2 -9 19 -20 10 -20 -15 0 -26
12 -34 20 -12 4 9 6 9 6 0 2 -23 -19 -24 -49 -2 -16 13 -27 25 -25 28 3 2 11
-1 17 -7 17 -17 33 -15 19 2 -9 11 -9 15 1 19 18 7 31 3 34 -11z m808 -6 c6
-1 17 -5 24 -9 7 -5 12 -3 12 4 0 8 4 8 15 -1 10 -9 15 -9 15 -1 0 6 5 11 11
11 8 0 7 -5 -1 -15 -7 -9 -19 -14 -27 -11 -7 3 -13 2 -13 -3 0 -5 -8 -8 -17
-7 -12 0 -17 -6 -17 -17 1 -13 -3 -16 -16 -12 -10 3 -21 1 -25 -5 -3 -5 -11
-10 -17 -10 -6 0 -3 9 7 20 10 11 21 17 25 15 4 -3 10 2 14 10 3 9 -5 20 -22
30 -24 14 -25 15 -3 9 13 -3 29 -7 35 -8z m-1119 -6 c3 -6 -1 -7 -9 -4 -18 7
-21 14 -7 14 6 0 13 -4 16 -10z m55 0 c0 -5 -5 -10 -11 -10 -5 0 -7 -5 -3 -12
4 -7 3 -8 -4 -4 -6 4 -9 13 -5 21 6 17 23 20 23 5z m75 0 c-3 -5 -12 -10 -18
-10 -7 0 -6 4 3 10 19 12 23 12 15 0z m54 0 c-6 -5 -18 -6 -26 -3 -19 8 -16
11 13 11 17 0 22 -3 13 -8z m859 -3 c6 -5 16 -6 21 -3 5 4 16 3 25 0 12 -5 9
-11 -14 -31 -24 -20 -28 -28 -20 -43 13 -24 13 -30 -2 -30 -19 1 -53 29 -45
37 4 3 16 -2 27 -12 18 -17 20 -17 14 -2 -3 9 -10 17 -14 17 -5 0 -7 8 -5 18
1 9 9 16 18 16 9 -1 18 4 20 10 3 7 -5 12 -22 11 -21 0 -26 -5 -25 -23 1 -18
-1 -20 -12 -11 -9 8 -11 16 -4 29 5 9 7 20 4 23 -8 8 19 3 34 -6z m262 9 c0
-3 -4 -8 -10 -11 -5 -3 -10 -1 -10 4 0 6 5 11 10 11 6 0 10 -2 10 -4z m-1566
-28 c-3 -4 -1 -8 4 -8 6 0 13 -7 16 -16 5 -13 4 -14 -7 -6 -8 7 -17 10 -20 7
-4 -3 -5 -2 -2 2 3 3 -3 12 -13 19 -16 12 -15 13 5 11 12 0 19 -5 17 -9z m246
2 c0 -5 -8 -10 -17 -10 -15 0 -16 2 -3 10 19 12 20 12 20 0z m176 -2 c5 -8 2
-9 -10 -5 -14 5 -17 3 -12 -8 3 -8 1 -15 -4 -15 -11 0 -13 23 -3 33 10 10 21
8 29 -5z m55 -9 c11 -11 14 -19 7 -17 -7 1 -24 -4 -37 -11 -13 -7 -21 -8 -17
-3 3 6 1 12 -6 14 -7 3 -5 7 6 11 10 4 15 3 11 -3 -3 -6 -2 -10 3 -10 16 0 22
13 11 27 -18 21 -1 15 22 -8z m-323 -9 c-7 -10 -14 -18 -15 -16 -6 6 9 36 18
36 5 0 4 -9 -3 -20z m109 -2 c-3 -8 -6 -5 -6 6 -1 11 2 17 5 13 3 -3 4 -12 1
-19z m1207 14 c3 -5 15 -8 28 -7 22 2 38 -10 38 -28 0 -5 -5 -5 -10 -2 -6 4
-17 1 -25 -5 -8 -6 -18 -9 -23 -6 -6 3 -15 -1 -22 -9 -7 -8 -17 -15 -23 -15
-19 0 18 30 42 35 29 5 35 11 22 20 -6 3 -11 2 -11 -2 0 -5 -9 -9 -19 -10 -11
-1 -19 4 -17 10 1 7 1 9 -1 5 -6 -11 -33 -10 -33 1 0 8 15 15 42 20 4 0 9 -3
12 -7z m-1349 -12 c3 -5 1 -10 -4 -10 -6 0 -11 5 -11 10 0 6 2 10 4 10 3 0 8
-4 11 -10z m205 0 c0 -5 -8 -10 -17 -10 -15 0 -16 2 -3 10 19 12 20 12 20 0z
m1084 -6 c7 -19 -2 -37 -15 -29 -5 4 -9 1 -9 -6 0 -10 -3 -10 -12 -1 -24 24
-34 5 -14 -26 5 -8 1 -21 -11 -34 -10 -12 -12 -18 -4 -13 9 5 12 4 7 -3 -4 -8
-2 -10 7 -6 8 3 18 0 23 -7 5 -9 2 -10 -10 -6 -10 4 -15 3 -11 -3 3 -6 1 -10
-4 -10 -6 0 -11 -5 -11 -11 0 -8 5 -8 15 1 8 7 15 8 15 2 0 -5 -7 -15 -15 -22
-16 -13 -17 -12 -19 35 -1 12 -7 19 -15 17 -11 -2 -10 2 3 22 9 14 16 29 16
33 0 4 -5 0 -11 -10 -6 -9 -15 -15 -20 -11 -5 3 -9 2 -8 -3 3 -18 -1 -36 -7
-30 -4 3 -19 0 -35 -8 -18 -10 -30 -11 -34 -5 -4 6 -10 8 -15 5 -4 -3 -13 2
-20 10 -7 8 -15 13 -19 11 -3 -2 -6 16 -7 40 -1 54 16 62 45 23 12 -16 27 -27
34 -24 7 4 3 0 -7 -9 -10 -8 -23 -13 -27 -10 -5 3 -9 1 -9 -4 0 -6 7 -13 16
-16 8 -3 12 -2 9 4 -3 6 -4 10 -1 10 2 0 13 3 23 6 15 6 16 4 6 -7 -16 -16
-17 -29 -3 -29 6 0 9 5 8 11 -2 6 4 14 12 16 13 4 13 3 0 -7 -13 -10 -13 -11
0 -7 8 2 14 10 13 16 -3 10 10 15 30 12 4 0 8 5 9 12 0 6 2 17 2 22 3 22 18
36 34 31 10 -3 24 -1 32 4 10 6 11 10 3 10 -7 0 -13 5 -13 10 0 16 17 12 24
-6z m-1204 -4 c8 -5 11 -10 5 -10 -5 0 -17 5 -25 10 -8 5 -10 10 -5 10 6 0 17
-5 25 -10z m40 -10 c0 -5 -2 -10 -4 -10 -3 0 -8 5 -11 10 -3 6 -1 10 4 10 6 0
11 -4 11 -10z m145 -21 c8 -13 17 -23 21 -21 5 2 10 -2 12 -8 2 -6 -5 -14 -17
-17 -12 -3 -21 -9 -21 -14 0 -5 -5 -9 -11 -9 -8 0 -8 4 0 14 10 12 8 17 -11
27 -13 7 -25 13 -28 13 -6 1 -8 28 -3 38 8 16 46 0 58 -23z m185 21 c0 -5 -2
-10 -4 -10 -3 0 -8 5 -11 10 -3 6 -1 10 4 10 6 0 11 -4 11 -10z m710 -58 c1
-3 -3 -8 -9 -10 -6 -2 -11 2 -11 8 0 7 -10 26 -21 43 l-22 32 31 -33 c17 -18
32 -36 32 -40z m-1020 43 c0 -8 -4 -15 -10 -15 -5 0 -7 7 -4 15 4 8 8 15 10
15 2 0 4 -7 4 -15z m240 4 c0 -5 4 -8 8 -5 5 3 9 -1 9 -9 0 -8 -4 -15 -9 -15
-4 0 -8 5 -8 11 0 5 -4 8 -8 5 -5 -3 -9 1 -9 9 0 8 4 15 9 15 4 0 8 -5 8 -11z
m912 -17 c-33 -27 -40 -42 -22 -42 6 0 9 6 8 13 -2 6 3 12 10 11 46 -4 46 -4
34 -16 -10 -10 -15 -10 -23 2 -9 13 -10 13 -6 0 2 -8 12 -15 23 -16 28 -1 55
-15 48 -26 -3 -5 -10 -5 -17 0 -7 5 -19 10 -27 10 -8 1 -28 3 -45 5 -26 4 -27
3 -11 -8 10 -8 25 -11 34 -8 10 4 13 2 8 -5 -4 -7 -2 -12 3 -12 6 0 11 5 11
10 0 6 4 10 8 10 9 0 9 -87 0 -95 -3 -3 -11 2 -19 12 -9 11 -10 14 -1 9 6 -4
12 -3 12 2 0 6 -7 13 -16 16 -9 3 -14 12 -11 19 3 8 -9 21 -29 32 -27 14 -31
21 -23 32 9 10 8 17 -2 30 -12 15 -12 16 3 10 10 -3 26 2 40 13 13 11 28 19
33 19 6 0 -5 -12 -23 -27z m-1349 0 c-5 -11 -7 -11 -14 0 -8 13 -13 3 -9 -17
1 -5 -2 -6 -6 -2 -16 16 -11 33 11 33 15 0 21 -5 18 -14z m101 9 c3 -5 -1 -11
-9 -14 -9 -4 -12 -1 -8 9 6 16 10 17 17 5z m55 6 c-2 -1 -13 -9 -24 -17 -19
-14 -19 -14 -6 3 7 9 18 17 24 17 6 0 8 -1 6 -3z m81 -17 c-12 -23 -16 -24
-26 -8 -4 7 -3 8 4 4 7 -4 12 -1 12 8 0 9 5 16 10 16 7 0 7 -6 0 -20z m-307
-11 c-8 -8 -13 -7 -18 2 -5 8 -4 10 3 5 7 -4 12 -2 12 5 0 7 3 9 7 6 4 -4 2
-12 -4 -18z m445 -4 c-3 -3 -9 2 -12 12 -6 14 -5 15 5 6 7 -7 10 -15 7 -18z
m-196 -3 c-7 -2 -9 -9 -5 -15 3 -7 2 -8 -2 -4 -16 14 -14 36 3 29 10 -4 12 -7
4 -10z m-34 -3 c-2 -6 -7 -10 -12 -9 -4 1 -14 -7 -22 -17 -14 -17 -14 -16 -4
5 6 12 15 20 21 17 5 -4 9 -1 9 4 0 6 3 11 6 11 3 0 4 -5 2 -11z m-141 -21
c-3 -8 -6 -5 -6 6 -1 11 2 17 5 13 3 -3 4 -12 1 -19z m53 12 c0 -5 -2 -10 -4
-10 -3 0 -8 5 -11 10 -3 6 -1 10 4 10 6 0 11 -4 11 -10z m160 -9 c0 -5 -10
-11 -22 -14 -21 -5 -21 -5 -6 7 10 7 14 17 10 21 -4 5 -1 5 6 1 6 -4 12 -11
12 -15z m40 4 c0 -8 -2 -15 -4 -15 -2 0 -6 7 -10 15 -3 8 -1 15 4 15 6 0 10
-7 10 -15z m1176 8 c-3 -4 1 -14 10 -24 10 -11 12 -19 5 -23 -6 -4 -8 -13 -5
-20 3 -8 -3 -12 -17 -11 -13 1 -25 7 -27 15 -3 7 0 10 5 7 16 -10 36 9 27 26
-5 9 -13 16 -19 16 -20 -1 -14 17 6 18 12 1 18 -1 15 -4z m-1136 -7 c0 -3 -4
-8 -10 -11 -5 -3 -10 -1 -10 4 0 6 5 11 10 11 6 0 10 -2 10 -4z m-144 -15 c-3
-5 1 -12 9 -15 12 -4 13 -10 5 -25 -17 -32 -11 -38 10 -11 11 14 20 21 19 15
0 -5 -6 -19 -14 -29 -21 -28 -42 -7 -25 24 11 20 10 21 -8 16 -11 -4 -23 -2
-27 3 -3 7 0 8 10 5 9 -4 15 -3 14 2 -2 14 0 24 7 24 3 0 3 -4 0 -9z m207 -36
c-10 -7 -20 -11 -23 -8 -3 2 3 9 12 14 10 6 15 17 12 27 -5 15 -4 14 6 -1 10
-15 8 -21 -7 -32z m-118 15 c3 -6 -1 -7 -9 -4 -18 7 -21 14 -7 14 6 0 13 -4
16 -10z m35 0 c0 -5 -4 -10 -10 -10 -5 0 -10 5 -10 10 0 6 5 10 10 10 6 0 10
-4 10 -10z m58 -4 c-7 -8 -15 -12 -17 -11 -5 6 10 25 20 25 5 0 4 -6 -3 -14z
m72 8 c0 -3 -5 -15 -11 -26 -9 -17 -9 -20 3 -16 8 3 22 0 33 -8 10 -8 14 -14
8 -14 -7 0 -14 4 -18 10 -3 5 -12 7 -19 4 -19 -7 -30 14 -17 30 6 7 8 16 4 19
-3 4 -1 7 5 7 7 0 12 -3 12 -6z m-119 -31 c-12 -20 -14 -14 -5 12 4 9 9 14 11
11 3 -2 0 -13 -6 -23z m-58 11 c3 -4 1 -16 -5 -27 -8 -16 -8 -19 5 -14 11 4
13 0 10 -14 -7 -25 -21 -34 -19 -11 0 10 -6 17 -16 16 -10 -1 -14 4 -11 12 3
8 9 12 13 9 4 -3 10 2 13 9 3 8 1 17 -6 20 -7 3 -8 5 -1 5 6 1 14 -2 17 -5z
m1267 -4 c0 -5 -4 -10 -10 -10 -5 0 -10 5 -10 10 0 6 5 10 10 10 6 0 10 -4 10
-10z m-160 -21 c0 -11 -4 -17 -10 -14 -5 3 -10 13 -10 21 0 8 5 14 10 14 6 0
10 -9 10 -21z m-1020 1 c0 -5 -4 -10 -10 -10 -5 0 -10 5 -10 10 0 6 5 10 10
10 6 0 10 -4 10 -10z m543 -4 c4 -10 1 -13 -9 -9 -15 6 -19 23 -5 23 5 0 11
-7 14 -14z m262 -3 c3 -10 0 -11 -14 -4 -10 6 -21 7 -25 4 -3 -3 -6 -1 -6 5 0
15 38 11 45 -5z m-645 -3 c0 -5 -5 -10 -11 -10 -5 0 -7 5 -4 10 3 6 8 10 11
10 2 0 4 -4 4 -10z m-27 -68 c-7 -17 -13 -10 -19 24 -5 27 -4 28 9 9 8 -10 12
-25 10 -33z m454 21 c6 -18 -16 -26 -23 -9 -3 9 -10 14 -14 11 -5 -3 -11 -1
-14 3 -3 5 7 8 21 7 15 0 28 -6 30 -12z m-267 -2 c0 -5 -7 -12 -16 -15 -14 -5
-15 -4 -4 9 14 17 20 19 20 6z m136 -4 c4 -4 -4 -6 -19 -5 -14 1 -24 5 -21 9
5 9 31 6 40 -4z"/>
<path d="M1343 675 c4 -5 -1 -18 -10 -29 -10 -12 -14 -18 -9 -14 5 4 15 3 23
-3 10 -9 18 -8 32 5 16 15 19 15 31 1 7 -9 15 -13 18 -10 8 8 42 -26 36 -36
-3 -5 2 -6 10 -3 9 3 16 10 16 15 0 5 6 8 13 7 6 -2 11 3 10 10 -2 6 2 12 7
12 5 0 10 5 10 11 0 8 -4 8 -14 0 -9 -7 -17 -8 -20 -2 -3 5 0 12 6 14 8 4 9 6
2 6 -6 1 -17 -6 -24 -14 -10 -12 -16 -13 -26 -4 -8 6 -14 8 -14 4 0 -4 -7 -2
-15 5 -8 7 -15 9 -15 5 0 -4 -6 -2 -14 4 -10 8 -16 9 -21 1 -3 -5 -11 -10 -16
-10 -6 0 -8 4 -4 9 3 5 0 13 -7 17 -7 4 -10 3 -5 -1z m34 -32 c-14 -14 -19
-15 -29 -4 -11 10 -10 11 3 6 10 -4 20 -2 24 4 3 6 9 11 13 11 3 0 -1 -8 -11
-17z m98 -13 c9 7 17 5 26 -7 7 -10 9 -15 5 -11 -5 4 -15 3 -21 -2 -8 -7 -18
-3 -31 13 -10 12 -12 16 -4 10 9 -8 17 -9 25 -3z"/>
<path d="M1455 490 c-10 -11 -23 -16 -29 -13 -6 4 -21 8 -33 9 -17 1 -20 -2
-12 -12 7 -8 7 -14 -1 -19 -6 -3 -8 -11 -4 -16 4 -6 11 -6 20 2 11 9 14 8 14
-2 0 -12 2 -12 9 -1 7 11 9 10 14 -3 5 -12 11 -14 26 -6 10 6 21 7 25 4 3 -3
6 -2 6 3 0 5 -9 15 -20 22 -12 7 -18 17 -15 22 4 6 10 8 14 6 4 -3 8 1 8 9 0
19 0 19 -22 -5z m-25 -20 c3 -1 8 -2 12 -2 3 1 12 -6 20 -15 9 -12 9 -15 1 -9
-8 4 -13 2 -13 -6 0 -9 -3 -9 -10 2 -11 18 -30 20 -50 6 -13 -9 -13 -8 -3 5 7
9 10 18 7 22 -5 5 21 2 36 -3z"/>
<path d="M1451 340 c-19 -16 -37 -28 -42 -27 -4 1 -6 -2 -5 -8 0 -5 7 -10 14
-11 6 -1 10 1 7 6 -5 8 42 44 58 45 7 0 11 14 5 20 -1 2 -18 -10 -37 -25z"/>
<path d="M1530 279 c0 -5 5 -7 10 -4 6 3 10 8 10 11 0 2 -4 4 -10 4 -5 0 -10
-5 -10 -11z"/>
<path d="M1525 572 c-6 -4 -11 -14 -13 -22 -2 -11 1 -10 12 3 10 14 15 15 19
5 4 -9 6 -9 6 -1 1 15 -12 24 -24 15z"/>
<path d="M1501 416 c-8 -10 -9 -16 -1 -21 5 -3 10 -5 11 -3 4 18 7 38 4 38 -1
0 -8 -6 -14 -14z"/>
<path d="M1706 574 c-3 -8 -2 -12 4 -9 6 3 10 1 10 -5 0 -7 5 -6 14 2 10 9 11
15 2 20 -17 11 -23 10 -30 -8z"/>
<path d="M1562 510 c7 -11 17 -20 22 -20 5 0 1 9 -9 20 -10 11 -20 20 -22 20
-2 0 2 -9 9 -20z"/>
<path d="M1549 448 c-6 -21 -5 -39 1 -43 5 -3 7 -12 4 -19 -3 -7 3 -19 13 -27
16 -13 17 -12 5 2 -7 9 -9 24 -6 34 5 13 9 14 15 3 6 -9 9 -9 9 -1 0 6 -9 18
-20 26 -11 8 -17 17 -13 20 3 4 3 7 0 7 -4 0 -7 -1 -8 -2z"/>
<path d="M703 439 c-1 -11 2 -17 6 -15 4 3 17 -1 27 -9 23 -17 44 -19 44 -4 0
5 -4 7 -10 4 -5 -3 -15 4 -21 17 -13 30 -44 34 -46 7z"/>
<path d="M1795 320 c3 -5 8 -10 11 -10 2 0 4 5 4 10 0 6 -5 10 -11 10 -5 0 -7
-4 -4 -10z"/>
<path d="M1166 717 c3 -10 9 -15 12 -12 3 3 0 11 -7 18 -10 9 -11 8 -5 -6z"/>
<path d="M1454 716 c5 -14 3 -17 -11 -12 -15 6 -16 5 -5 -5 17 -18 35 1 21 21
-9 12 -10 12 -5 -4z"/>
<path d="M1695 719 c-3 -4 2 -6 10 -5 21 3 28 13 10 13 -9 0 -18 -4 -20 -8z"/>
<path d="M2030 720 c0 -5 5 -10 11 -10 5 0 7 5 4 10 -3 6 -8 10 -11 10 -2 0
-4 -4 -4 -10z"/>
<path d="M2310 726 c0 -2 7 -7 16 -10 8 -3 12 -2 9 4 -6 10 -25 14 -25 6z"/>
<path d="M1576 703 c-6 -14 -5 -15 5 -6 7 7 10 15 7 18 -3 3 -9 -2 -12 -12z"/>
<path d="M1995 709 c-4 -6 -5 -12 -2 -15 2 -3 7 2 10 11 7 17 1 20 -8 4z"/>
<path d="M1936 697 c3 -10 9 -15 12 -12 3 3 0 11 -7 18 -10 9 -11 8 -5 -6z"/>
<path d="M2092 705 c4 -4 3 -14 -4 -22 -6 -7 -9 -15 -7 -18 3 -2 10 4 17 15 9
15 9 21 -1 26 -6 4 -9 4 -5 -1z"/>
<path d="M2250 700 c0 -5 5 -10 11 -10 5 0 7 5 4 10 -3 6 -8 10 -11 10 -2 0
-4 -4 -4 -10z"/>
<path d="M1708 693 c6 -2 18 -2 25 0 6 3 1 5 -13 5 -14 0 -19 -2 -12 -5z"/>
<path d="M1910 690 c0 -5 5 -10 11 -10 5 0 7 5 4 10 -3 6 -8 10 -11 10 -2 0
-4 -4 -4 -10z"/>
<path d="M2045 681 c20 -23 20 -23 0 -20 -11 2 -24 9 -28 14 -5 6 -7 4 -5 -4
5 -16 44 -25 52 -12 3 4 -4 17 -17 27 l-22 19 20 -24z"/>
<path d="M2316 686 c3 -8 13 -17 22 -21 13 -5 13 -2 -3 15 -21 24 -26 25 -19
6z"/>
<path d="M1965 680 c-3 -5 -1 -10 4 -10 6 0 11 5 11 10 0 6 -2 10 -4 10 -3 0
-8 -4 -11 -10z"/>
<path d="M2175 671 c-3 -5 -2 -12 3 -15 5 -3 9 1 9 9 0 17 -3 19 -12 6z"/>
<path d="M1093 631 c-1 -37 -1 -39 16 -23 14 14 15 19 4 25 -15 9 -8 27 10 27
7 0 6 -4 -3 -11 -13 -9 -13 -10 2 -6 12 4 16 1 13 -14 -4 -19 9 -26 19 -11 8
14 -23 52 -42 52 -13 0 -18 -9 -19 -39z"/>
<path d="M1893 657 c-3 -5 -2 -11 1 -14 3 -4 6 -2 6 4 0 6 8 9 19 6 10 -3 21
0 25 5 3 6 -5 9 -20 8 -14 0 -28 -5 -31 -9z"/>
<path d="M1990 661 c0 -6 4 -13 10 -16 6 -3 7 1 4 9 -7 18 -14 21 -14 7z"/>
<path d="M2150 661 c0 -6 4 -13 10 -16 6 -3 7 1 4 9 -7 18 -14 21 -14 7z"/>
<path d="M2435 662 c3 -3 -1 -12 -7 -21 -8 -10 -4 -9 10 3 26 23 26 23 7 23
-8 0 -13 -3 -10 -5z"/>
<path d="M986 651 c-4 -5 -2 -12 3 -15 5 -4 12 -2 15 3 4 5 2 12 -3 15 -5 4
-12 2 -15 -3z"/>
<path d="M1206 653 c-3 -3 -6 -11 -6 -17 0 -6 5 -4 11 4 8 13 9 12 7 -4 -2
-10 3 -21 11 -24 8 -3 11 0 7 6 -3 6 -1 14 5 18 8 5 9 3 4 -6 -6 -9 -4 -11 5
-5 9 5 11 4 6 -3 -4 -7 -3 -12 1 -12 5 0 18 -7 29 -16 18 -14 18 -15 -4 -4
-22 11 -23 10 -13 -8 6 -11 7 -22 4 -26 -3 -3 -1 -6 6 -6 8 0 11 7 6 18 -5 13
-3 14 6 5 16 -16 1 -35 -23 -27 -11 3 -18 2 -15 -3 3 -5 1 -15 -4 -23 -8 -13
-10 -13 -19 0 -5 8 -10 13 -11 10 0 -3 -2 -13 -4 -23 -4 -23 25 -19 43 6 8 10
21 16 30 15 9 -2 17 3 18 10 1 6 2 18 3 25 1 7 6 5 12 -6 8 -14 14 -16 24 -7
11 9 22 6 48 -14 20 -16 34 -21 35 -13 0 6 3 22 6 35 3 12 1 20 -4 17 -8 -5
-25 12 -25 27 0 3 -3 9 -7 13 -3 4 -5 -1 -4 -12 5 -28 -13 -44 -35 -32 -12 6
-17 15 -12 22 4 8 1 7 -10 -1 -18 -15 -41 -7 -33 13 3 9 -2 11 -17 8 -18 -4
-19 -3 -7 6 8 6 12 11 8 12 -14 3 -28 6 -33 9 -3 1 -8 3 -12 4 -5 1 -13 4 -19
8 -6 4 -14 5 -18 1z m139 -82 c3 -5 2 -12 -3 -15 -5 -3 -9 1 -9 9 0 17 3 19
12 6z m76 -8 c8 -10 9 -14 2 -10 -6 4 -14 3 -18 -3 -4 -6 -11 -8 -16 -4 -6 4
-6 11 2 20 14 17 14 18 30 -3z"/>
<path d="M2473 645 c0 -8 4 -12 9 -9 5 3 6 10 3 15 -9 13 -12 11 -12 -6z"/>
<path d="M880 629 c12 -21 31 -22 38 -1 2 7 -2 10 -12 6 -9 -3 -16 -1 -16 5 0
6 -5 11 -10 11 -7 0 -7 -7 0 -21z"/>
<path d="M1166 642 c-5 -9 8 -34 18 -33 19 3 26 0 26 -10 0 -6 -5 -7 -12 -2
-23 13 -46 13 -58 -2 -9 -11 -8 -14 9 -12 11 0 17 6 13 12 -3 5 6 2 21 -8 19
-12 27 -14 27 -5 0 9 3 9 9 -2 13 -19 3 -34 -13 -21 -7 6 -16 8 -19 4 -4 -3 1
-12 11 -20 9 -8 11 -11 3 -7 -9 4 -12 3 -7 -4 3 -6 2 -13 -4 -17 -16 -10 -12
-25 5 -18 9 3 13 8 11 11 -9 8 14 31 27 28 7 -1 9 -1 5 1 -5 3 -8 9 -8 14 0 6
5 7 10 4 6 -3 10 -1 10 5 0 6 5 8 10 5 6 -4 5 4 -1 19 -8 18 -16 23 -23 17 -8
-7 -18 0 -31 20 -20 30 -30 35 -39 21z m84 -62 c0 -5 -4 -10 -10 -10 -5 0 -10
5 -10 10 0 6 5 10 10 10 6 0 10 -4 10 -10z"/>
<path d="M1960 643 c8 -4 20 -13 27 -22 7 -9 13 -11 13 -6 1 6 6 1 11 -10 l9
-20 -3 20 c-1 11 -6 18 -10 15 -5 -3 -13 3 -18 13 -6 9 -18 17 -27 16 -14 0
-14 -2 -2 -6z"/>
<path d="M2060 640 c-7 -4 -18 -7 -24 -6 -6 2 -8 1 -3 -1 4 -3 4 -10 0 -16 -4
-7 -1 -7 9 1 9 7 29 15 44 18 24 4 26 3 14 -11 -8 -10 -9 -15 -1 -15 6 0 11 5
11 10 0 6 8 10 17 10 26 0 9 10 -24 14 -16 2 -36 0 -43 -4z"/>
<path d="M2210 638 c0 -10 9 -9 35 2 17 8 16 8 -7 7 -16 -1 -28 -5 -28 -9z"/>
<path d="M2280 635 c-7 -9 -8 -15 -2 -15 5 0 12 7 16 15 3 8 4 15 2 15 -2 0
-9 -7 -16 -15z"/>
<path d="M1938 628 c5 -5 16 -8 23 -6 8 3 3 7 -10 11 -17 4 -21 3 -13 -5z"/>
<path d="M2175 631 c-3 -5 0 -13 6 -17 7 -4 9 -3 5 4 -3 5 0 13 6 15 9 4 10 6
1 6 -6 1 -14 -3 -18 -8z"/>
<path d="M575 620 c-3 -5 -1 -10 4 -10 6 0 11 5 11 10 0 6 -2 10 -4 10 -3 0
-8 -4 -11 -10z"/>
<path d="M2150 621 c0 -6 4 -13 10 -16 6 -3 7 1 4 9 -7 18 -14 21 -14 7z"/>
<path d="M2480 615 c-7 -8 -16 -13 -19 -10 -4 2 -8 -2 -8 -10 0 -8 4 -12 9 -9
5 3 17 0 26 -8 15 -12 16 -11 3 5 -11 14 -11 20 -1 32 7 8 10 15 7 15 -2 0
-10 -7 -17 -15z"/>
<path d="M2075 596 c6 -26 4 -28 -9 -17 -9 8 -16 9 -16 3 0 -5 7 -13 15 -16
12 -4 14 -10 5 -25 -7 -13 -7 -22 0 -26 5 -3 10 -3 10 2 0 4 4 2 9 -6 10 -16
47 -25 55 -13 2 4 -2 16 -10 27 -8 10 -14 14 -14 9 0 -6 6 -16 13 -23 10 -10
8 -12 -8 -9 -20 3 -44 26 -45 42 0 5 7 3 15 -4 9 -7 15 -8 15 -2 0 5 -7 13
-16 16 -8 3 -13 10 -10 15 3 5 1 20 -4 33 -10 21 -10 20 -5 -6z"/>
<path d="M2407 598 c9 -10 17 -18 17 -18 1 0 2 8 2 18 0 10 -8 18 -18 18 -16
0 -16 -2 -1 -18z"/>
<path d="M2535 609 c-4 -6 -5 -12 -2 -15 2 -3 7 2 10 11 7 17 1 20 -8 4z"/>
<path d="M684 602 c5 -8 1 -19 -10 -27 -17 -13 -17 -14 -3 -15 23 0 66 36 55
47 -5 4 -11 2 -13 -5 -4 -10 -8 -10 -21 0 -13 11 -14 11 -8 0z"/>
<path d="M1002 590 c-15 -25 -15 -35 1 -24 14 11 33 11 66 0 14 -5 27 -4 35 4
8 9 6 11 -11 6 -15 -5 -26 -1 -37 16 -9 12 -16 17 -16 10 0 -6 -5 -12 -11 -12
-5 0 -7 5 -4 10 3 6 2 10 -2 10 -5 0 -14 -9 -21 -20z"/>
<path d="M1113 590 c7 -29 -18 -46 -48 -32 -15 7 -26 8 -30 2 -9 -15 -27 -12
-19 3 5 9 4 9 -6 0 -16 -15 -5 -32 20 -30 14 1 19 6 15 17 -4 13 -4 13 7 0 7
-8 20 -15 28 -15 8 0 14 -6 13 -12 -2 -7 2 -13 7 -13 6 0 10 6 10 13 0 6 5 4
11 -5 5 -10 14 -18 20 -18 5 0 2 11 -7 25 -9 14 -21 22 -27 18 -6 -3 -7 -1 -3
6 4 6 11 9 16 6 5 -3 8 8 8 25 -1 16 -5 30 -11 30 -5 0 -7 -9 -4 -20z"/>
<path d="M1970 600 c8 -5 20 -10 25 -10 6 0 3 5 -5 10 -8 5 -19 10 -25 10 -5
0 -3 -5 5 -10z"/>
<path d="M2110 599 c-12 -8 -10 -9 8 -4 16 5 22 3 20 -7 -4 -18 44 -17 49 2 3
9 1 11 -4 5 -12 -15 -44 -18 -41 -4 4 16 -14 21 -32 8z"/>
<path d="M2251 607 c2 -1 13 -9 24 -17 19 -14 19 -14 6 3 -7 9 -18 17 -24 17
-6 0 -8 -1 -6 -3z"/>
<path d="M2676 593 c-6 -14 -5 -15 5 -6 7 7 10 15 7 18 -3 3 -9 -2 -12 -12z"/>
<path d="M2719 608 c-5 -18 -6 -38 -1 -34 7 8 12 36 6 36 -2 0 -4 -1 -5 -2z"/>
<path d="M2230 590 c8 -5 20 -10 25 -10 6 0 3 5 -5 10 -8 5 -19 10 -25 10 -5
0 -3 -5 5 -10z"/>
<path d="M603 573 c0 -7 4 -13 8 -13 4 0 9 6 12 13 3 8 0 14 -7 14 -7 0 -13
-6 -13 -14z"/>
<path d="M2197 577 c-3 -8 -2 -20 3 -26 5 -9 8 -4 8 13 0 29 -3 32 -11 13z"/>
<path d="M2308 583 c6 -2 18 -2 25 0 6 3 1 5 -13 5 -14 0 -19 -2 -12 -5z"/>
<path d="M2625 580 c-3 -6 1 -7 9 -4 18 7 21 14 7 14 -6 0 -13 -4 -16 -10z"/>
<path d="M470 571 c0 -5 -9 -8 -19 -6 -13 2 -18 -1 -16 -13 2 -9 4 -19 4 -21
1 -2 10 4 22 15 12 10 23 18 25 17 2 -2 4 0 5 4 0 4 -4 9 -10 11 -6 2 -11 -1
-11 -7z"/>
<path d="M956 572 c-4 -7 -4 -17 0 -24 4 -7 9 -35 10 -62 1 -28 3 -53 5 -56 1
-3 3 -11 3 -19 1 -8 6 -16 13 -18 8 -3 10 4 7 19 -13 59 -12 68 7 58 24 -14
29 -12 23 5 -4 8 -10 12 -15 9 -5 -3 -6 3 -2 13 6 15 4 16 -9 5 -13 -10 -17
-10 -21 1 -3 9 2 13 16 12 11 -1 23 -7 25 -13 3 -9 9 -9 23 -2 26 15 24 30 -3
24 -17 -3 -30 5 -49 27 -17 21 -28 28 -33 21z m22 -37 c-3 -3 -9 2 -12 12 -6
14 -5 15 5 6 7 -7 10 -15 7 -18z"/>
<path d="M1138 557 c-8 -17 -7 -18 14 -12 20 5 21 5 5 -5 -14 -9 -15 -15 -7
-25 13 -16 -4 -30 -22 -18 -7 4 -20 8 -28 8 -8 0 -14 6 -12 13 3 18 -4 15 -33
-14 -14 -14 -23 -29 -20 -34 3 -5 1 -11 -5 -15 -11 -7 -4 -25 10 -25 4 0 7 11
6 25 -2 14 1 22 7 18 6 -3 7 -1 4 4 -11 18 26 26 39 8 8 -11 14 -12 19 -5 3 5
11 8 16 4 5 -3 6 -10 3 -16 -5 -8 -1 -9 12 -4 40 16 53 15 47 -2 -4 -15 -3
-15 6 -2 15 21 14 33 -4 27 -20 -8 -29 11 -15 28 8 9 8 15 2 15 -11 0 -11 18
0 35 4 6 -2 11 -14 11 -11 0 -24 -9 -30 -19z"/>
<path d="M1998 573 c7 -3 16 -2 19 1 4 3 -2 6 -13 5 -11 0 -14 -3 -6 -6z"/>
<path d="M2524 558 c-12 -14 -13 -18 -3 -10 9 6 18 10 21 7 2 -3 5 2 5 10 0
19 0 19 -23 -7z"/>
<path d="M1790 560 c0 -5 5 -10 11 -10 5 0 7 5 4 10 -3 6 -8 10 -11 10 -2 0
-4 -4 -4 -10z"/>
<path d="M2036 558 c5 -8 2 -9 -9 -5 -24 9 -21 0 4 -14 13 -6 19 -7 15 -1 -3
6 -1 12 6 14 7 3 5 7 -6 11 -11 5 -15 3 -10 -5z"/>
<path d="M2115 560 c27 -12 43 -12 25 0 -8 5 -22 9 -30 9 -10 0 -8 -3 5 -9z"/>
<path d="M2264 558 c9 -5 23 -5 32 0 12 6 7 9 -16 9 -23 0 -28 -3 -16 -9z"/>
<path d="M2750 560 c0 -5 5 -10 11 -10 5 0 7 5 4 10 -3 6 -8 10 -11 10 -2 0
-4 -4 -4 -10z"/>
<path d="M2156 545 c-9 -26 -7 -32 5 -12 6 10 9 21 6 23 -2 3 -7 -2 -11 -11z"/>
<path d="M340 540 c18 -12 30 -13 30 -2 0 4 -10 9 -22 9 -18 2 -20 0 -8 -7z"/>
<path d="M2259 533 c14 -28 14 -36 -1 -27 -7 4 -8 3 -4 -5 7 -11 26 -6 26 8 0
4 -7 16 -16 27 -15 18 -15 18 -5 -3z"/>
<path d="M2465 539 c-3 -4 2 -6 10 -5 21 3 28 13 10 13 -9 0 -18 -4 -20 -8z"/>
<path d="M2590 538 c0 -4 4 -8 9 -8 6 0 12 4 15 8 3 5 -1 9 -9 9 -8 0 -15 -4
-15 -9z"/>
<path d="M2535 530 c-4 -6 -12 -7 -18 -4 -7 4 -9 4 -5 -1 4 -4 2 -15 -4 -24
-10 -12 -7 -12 8 2 11 9 23 15 26 12 2 -3 5 2 5 10 0 18 -3 19 -12 5z"/>
<path d="M2022 525 c4 -4 0 -14 -10 -21 -9 -7 -12 -14 -6 -14 6 0 17 6 23 14
9 11 9 16 -1 22 -7 4 -10 4 -6 -1z"/>
<path d="M2170 520 c0 -5 5 -10 10 -10 6 0 10 5 10 10 0 6 -4 10 -10 10 -5 0
-10 -4 -10 -10z"/>
<path d="M2205 520 c-3 -6 1 -7 9 -4 18 7 21 14 7 14 -6 0 -13 -4 -16 -10z"/>
<path d="M2746 518 c3 -5 10 -6 15 -3 13 9 11 12 -6 12 -8 0 -12 -4 -9 -9z"/>
<path d="M1269 514 c-1 -5 -1 -12 0 -16 1 -7 -14 -12 -31 -9 -4 0 -15 -11 -25
-25 -15 -24 -18 -25 -29 -9 -11 15 -14 15 -33 -4 -29 -29 -26 -37 9 -37 17 0
29 4 27 10 -2 6 -11 10 -21 8 -9 -2 -16 1 -16 7 0 10 19 9 38 -2 6 -5 12 -5
12 0 0 4 4 2 9 -6 10 -15 41 -24 41 -12 0 3 -8 17 -17 30 -9 14 -11 21 -5 17
6 -3 13 -2 17 4 4 6 11 8 16 4 5 -3 7 -10 4 -15 -4 -5 -2 -9 4 -9 13 0 22 15
14 24 -12 12 -12 36 0 29 18 -11 47 -14 47 -5 0 5 -6 9 -12 9 -7 0 -21 4 -30
8 -10 4 -19 3 -19 -1z"/>
<path d="M2475 510 c-3 -5 -3 -10 1 -10 4 0 -1 -10 -12 -22 -19 -23 -19 -23 2
-5 11 9 21 24 21 32 0 18 -3 19 -12 5z"/>
<path d="M2040 495 c-7 -8 -9 -15 -4 -15 5 0 2 -5 -6 -10 -8 -5 -10 -10 -4
-10 5 0 19 6 30 14 14 11 16 18 8 26 -8 8 -14 7 -24 -5z m20 -5 c0 -5 -5 -10
-11 -10 -5 0 -7 5 -4 10 3 6 8 10 11 10 2 0 4 -4 4 -10z"/>
<path d="M2215 500 c-3 -6 1 -7 9 -4 18 7 21 14 7 14 -6 0 -13 -4 -16 -10z"/>
<path d="M2420 504 c0 -1 6 -7 14 -13 10 -9 15 -8 19 2 3 8 -3 13 -14 13 -11
0 -19 -1 -19 -2z"/>
<path d="M2193 474 c0 -17 2 -22 7 -13 5 6 6 18 3 26 -8 19 -10 16 -10 -13z"/>
<path d="M2325 483 c-11 -25 -15 -46 -7 -38 4 4 7 10 7 13 0 4 4 13 9 20 4 7
6 15 3 18 -2 3 -8 -3 -12 -13z"/>
<path d="M2794 489 c-3 -6 -2 -15 3 -20 5 -5 9 -1 9 11 0 23 -2 24 -12 9z"/>
<path d="M1066 473 c-3 -10 -5 -21 -3 -24 1 -4 -6 -16 -16 -26 -9 -11 -14 -23
-10 -28 5 -4 2 -5 -4 -1 -14 8 -69 -41 -58 -52 4 -4 13 2 21 13 8 11 23 20 32
20 9 0 18 9 20 19 2 11 14 28 26 39 20 18 20 18 1 12 -16 -5 -17 -4 -8 6 9 9
16 9 26 1 8 -7 18 -8 22 -4 5 4 5 1 1 -5 -4 -7 -2 -13 3 -13 6 0 10 11 9 25
-2 15 -6 21 -11 16 -12 -12 -39 -2 -31 10 3 5 1 9 -5 9 -5 0 -12 -8 -15 -17z"/>
<path d="M1289 476 c8 -10 6 -18 -9 -31 -19 -17 -26 -11 -21 18 1 5 -3 6 -9 2
-11 -7 -3 -26 25 -60 13 -16 16 -17 11 -3 -3 10 -1 20 5 23 5 4 6 12 2 18 -4
7 1 6 10 -2 13 -10 14 -17 6 -27 -14 -17 -1 -37 20 -30 14 5 14 4 -1 -7 -10
-8 -15 -17 -11 -20 3 -4 11 1 18 9 11 15 12 15 12 0 0 -9 -3 -16 -6 -17 -3 0
-14 -2 -24 -4 -10 -2 -14 1 -11 7 5 7 2 8 -6 3 -8 -5 -11 -4 -7 1 3 5 -3 10
-13 10 -10 0 -16 -5 -12 -11 3 -5 -1 -4 -10 3 -13 10 -17 10 -21 -2 -3 -8 -2
-16 3 -18 4 -2 2 -9 -6 -16 -8 -7 -14 -8 -14 -2 0 5 -7 10 -15 10 -17 0 -19
-9 -5 -30 5 -8 10 -10 10 -4 0 14 31 14 50 0 13 -10 13 -9 1 7 -12 16 -12 20
1 33 14 14 18 14 40 0 14 -9 28 -13 33 -9 4 5 5 2 1 -5 -4 -7 -11 -10 -15 -8
-4 3 -8 -1 -8 -8 0 -7 10 -12 21 -12 12 1 20 7 19 14 -2 7 -4 18 -5 25 -2 7 8
12 25 12 28 0 44 17 43 44 -1 17 -26 28 -26 11 0 -6 4 -9 9 -5 11 6 6 -33 -5
-44 -3 -3 -4 3 -2 13 1 10 -2 21 -9 23 -8 3 -11 -3 -8 -16 3 -14 0 -18 -12
-14 -10 4 -11 8 -3 13 8 5 7 9 -4 13 -9 4 -16 12 -16 19 0 9 3 9 10 -2 8 -13
11 -13 22 -1 8 9 9 11 1 7 -6 -3 -14 -2 -18 4 -4 6 -10 8 -15 5 -10 -6 -22 23
-14 36 3 5 9 7 13 5 4 -3 8 1 8 8 0 7 -5 13 -11 14 -6 0 -22 3 -34 6 -19 4
-21 2 -13 -8z m41 -11 c0 -2 -6 -5 -13 -8 -8 -3 -14 1 -14 8 0 7 6 11 14 8 7
-3 13 -6 13 -8z m0 -65 c0 -5 -5 -10 -11 -10 -5 0 -7 5 -4 10 3 6 8 10 11 10
2 0 4 -4 4 -10z"/>
<path d="M2076 475 c-9 -26 -7 -32 5 -12 6 10 9 21 6 23 -2 3 -7 -2 -11 -11z"/>
<path d="M2150 480 c0 -6 7 -10 15 -10 8 0 15 2 15 4 0 2 -7 6 -15 10 -8 3
-15 1 -15 -4z"/>
<path d="M2235 480 c3 -5 8 -10 11 -10 2 0 4 5 4 10 0 6 -5 10 -11 10 -5 0 -7
-4 -4 -10z"/>
<path d="M2270 470 l-25 -21 28 12 c15 7 27 16 27 21 0 11 -1 10 -30 -12z"/>
<path d="M2575 480 c5 -7 82 -6 90 1 2 3 -18 5 -44 5 -27 0 -48 -3 -46 -6z"/>
<path d="M2750 479 c0 -5 5 -7 10 -4 6 3 10 8 10 11 0 2 -4 4 -10 4 -5 0 -10
-5 -10 -11z"/>
<path d="M1935 470 c-3 -5 -1 -10 4 -10 6 0 11 5 11 10 0 6 -2 10 -4 10 -3 0
-8 -4 -11 -10z"/>
<path d="M1980 465 c-7 -9 -11 -17 -8 -20 2 -2 12 4 21 15 9 11 13 20 8 20 -5
0 -14 -7 -21 -15z"/>
<path d="M2108 473 c6 -2 10 -9 7 -14 -4 -5 2 -6 11 -2 11 4 15 3 10 -5 -10
-16 11 -25 31 -12 15 9 14 10 -6 4 -15 -4 -21 -2 -17 4 6 10 -24 33 -41 31 -4
0 -2 -3 5 -6z"/>
<path d="M2510 476 c0 -2 8 -10 18 -17 15 -13 16 -12 3 4 -13 16 -21 21 -21
13z"/>
<path d="M2215 459 c-4 -6 -4 -13 -1 -16 3 -4 6 -1 6 6 0 7 5 9 12 5 7 -4 8
-3 4 4 -9 15 -13 15 -21 1z"/>
<path d="M2365 459 c-4 -6 -5 -12 -2 -15 2 -3 7 2 10 11 7 17 1 20 -8 4z"/>
<path d="M2433 452 c0 -12 3 -19 6 -17 2 3 11 -1 20 -7 10 -8 8 -3 -4 12 -11
14 -21 27 -22 29 -1 2 -1 -6 0 -17z"/>
<path d="M996 451 c-4 -5 -1 -13 5 -16 5 -4 8 -13 5 -21 -3 -8 -1 -14 4 -14
18 0 21 20 7 41 -9 12 -18 16 -21 10z"/>
<path d="M1996 445 c-4 -11 -4 -16 0 -13 3 4 15 -3 26 -15 19 -21 19 -21 9 -1
-6 12 -7 25 -3 29 4 5 2 5 -5 2 -6 -4 -13 -2 -15 5 -3 7 -7 4 -12 -7z"/>
<path d="M2096 441 c3 -13 2 -21 -3 -18 -12 8 -46 -20 -38 -32 8 -14 35 -14
35 -1 0 5 -8 6 -17 3 -16 -6 -16 -5 -4 10 7 9 17 15 21 12 15 -9 22 14 10 32
-9 15 -10 14 -4 -6z"/>
<path d="M2493 445 c0 -8 3 -13 5 -10 3 3 15 -3 26 -12 15 -13 14 -10 -3 10
-29 32 -28 31 -28 12z"/>
<path d="M1920 442 c0 -12 79 -92 91 -92 6 0 7 5 4 10 -3 6 -1 10 4 10 6 0 11
5 11 11 0 8 -5 7 -15 -1 -13 -11 -20 -9 -40 10 -17 16 -23 31 -20 44 3 12 2
15 -1 9 -3 -7 -10 -13 -15 -13 -6 0 -7 5 -4 10 3 6 1 10 -4 10 -6 0 -11 -4
-11 -8z"/>
<path d="M2041 433 c0 -11 3 -13 6 -5 2 6 10 9 15 6 7 -4 8 -2 4 4 -11 18 -26
14 -25 -5z"/>
<path d="M2280 432 c9 -19 30 -23 30 -5 0 4 -3 3 -7 0 -3 -4 -12 1 -20 11 -13
15 -13 15 -3 -6z"/>
<path d="M2593 432 c-8 -14 -8 -19 1 -19 7 0 13 9 13 19 1 10 1 18 0 18 -1 0
-7 -8 -14 -18z"/>
<path d="M2753 435 c0 -8 4 -12 9 -9 5 3 6 10 3 15 -9 13 -12 11 -12 -6z"/>
<path d="M176 423 c-6 -14 -5 -15 5 -6 7 7 10 15 7 18 -3 3 -9 -2 -12 -12z"/>
<path d="M1090 430 c4 -27 0 -40 -11 -40 -8 0 -7 6 2 17 12 14 12 16 -1 11 -8
-2 -15 -11 -15 -19 0 -17 -26 -39 -38 -32 -5 3 -15 -3 -22 -13 -20 -27 -18
-36 4 -22 11 7 18 16 15 20 -3 4 1 5 9 2 8 -3 20 2 27 11 14 17 30 20 30 4 0
-5 -4 -8 -9 -5 -5 3 -14 0 -20 -7 -8 -11 -5 -14 18 -14 22 0 28 5 28 21 1 48
2 52 13 36 5 -8 10 -10 10 -4 0 6 -9 19 -21 30 -16 15 -21 16 -19 4z"/>
<path d="M2236 427 c3 -10 9 -15 12 -12 3 3 0 11 -7 18 -10 9 -11 8 -5 -6z"/>
<path d="M2553 425 c0 -8 4 -12 9 -9 5 3 6 10 3 15 -9 13 -12 11 -12 -6z"/>
<path d="M1970 424 c0 -7 27 -34 34 -34 13 0 5 16 -14 28 -11 7 -20 10 -20 6z"/>
<path d="M2111 407 c-13 -21 -12 -21 5 -5 10 10 16 20 13 22 -3 3 -11 -5 -18
-17z"/>
<path d="M2177 417 c3 -4 12 -7 21 -5 10 2 25 -7 34 -22 10 -14 18 -20 18 -15
-1 21 -31 49 -54 50 -13 0 -22 -3 -19 -8z"/>
<path d="M2835 421 c-3 -5 -2 -12 3 -15 5 -3 9 1 9 9 0 17 -3 19 -12 6z"/>
<path d="M307 405 c3 -8 9 -12 14 -9 12 7 11 11 -5 17 -10 4 -13 1 -9 -8z"/>
<path d="M1197 413 c-13 -12 -7 -25 8 -20 8 4 17 2 20 -4 4 -5 3 -9 -2 -8 -20
3 -34 -2 -28 -11 4 -6 11 -8 16 -5 5 4 9 4 9 1 0 -3 -8 -10 -19 -15 -16 -9
-18 -7 -15 14 1 14 -2 25 -7 25 -6 0 -7 5 -3 12 4 7 3 8 -5 4 -6 -4 -9 -12 -6
-17 4 -5 0 -9 -7 -9 -9 0 -9 -3 2 -10 13 -9 13 -11 0 -20 -11 -7 -11 -10 -2
-10 7 0 11 -4 7 -9 -3 -5 0 -13 6 -17 7 -4 9 -3 6 3 -4 6 6 16 22 23 16 6 32
21 35 33 4 13 9 18 13 12 10 -13 65 -16 57 -3 -3 4 -9 6 -14 3 -4 -3 -13 1
-19 9 -7 8 -20 13 -29 11 -9 -1 -22 1 -28 6 -6 5 -14 6 -17 2z"/>
<path d="M2428 413 c6 -2 9 -10 6 -15 -4 -7 -2 -8 5 -4 13 9 5 26 -12 25 -9 0
-8 -2 1 -6z"/>
<path d="M2493 405 c0 -8 3 -13 5 -10 3 3 12 -1 21 -7 10 -8 9 -4 -3 10 -23
26 -23 26 -23 7z"/>
<path d="M1136 394 c-3 -9 -11 -12 -18 -8 -10 6 -11 4 0 -7 15 -16 16 -33 2
-24 -6 4 -9 1 -8 -6 2 -9 -11 -13 -44 -14 -54 -1 -80 -17 -59 -38 11 -10 13
-9 8 5 -5 14 0 13 31 -5 41 -25 110 -35 78 -12 -12 9 -14 15 -6 20 6 4 9 14 6
24 -5 14 -4 13 8 -2 12 -15 13 -11 13 33 0 54 -1 59 -11 34z m-46 -75 c0 -8 6
-7 18 2 15 13 16 12 4 -3 -8 -9 -11 -22 -8 -27 4 -7 -4 -6 -24 0 -34 13 -42
24 -8 13 20 -6 21 -5 9 10 -9 10 -10 16 -2 16 6 0 11 -5 11 -11z"/>
<path d="M2135 400 c-3 -5 -3 -10 2 -11 4 -1 -3 -5 -17 -10 l-25 -8 25 2 c14
1 24 6 22 12 -2 5 5 12 15 16 16 7 16 8 1 8 -9 1 -20 -3 -23 -9z"/>
<path d="M2260 399 c0 -5 5 -7 10 -4 6 3 10 8 10 11 0 2 -4 4 -10 4 -5 0 -10
-5 -10 -11z"/>
<path d="M2310 399 c0 -5 5 -7 10 -4 6 3 10 8 10 11 0 2 -4 4 -10 4 -5 0 -10
-5 -10 -11z"/>
<path d="M2636 398 c3 -5 10 -6 15 -3 13 9 11 12 -6 12 -8 0 -12 -4 -9 -9z"/>
<path d="M2746 398 c3 -5 10 -6 15 -3 13 9 11 12 -6 12 -8 0 -12 -4 -9 -9z"/>
<path d="M2355 391 c-6 -11 13 -26 22 -17 4 3 1 6 -6 6 -7 0 -9 5 -6 10 3 6 4
10 1 10 -3 0 -7 -4 -11 -9z"/>
<path d="M2196 379 c3 -5 10 -7 15 -4 5 4 9 2 9 -4 0 -5 -6 -12 -12 -14 -10
-4 -10 -6 0 -6 7 -1 10 -6 6 -13 -4 -6 -3 -8 3 -5 17 11 10 50 -10 53 -9 1
-15 -2 -11 -7z"/>
<path d="M2680 380 c-9 -6 -10 -10 -3 -10 6 0 15 5 18 10 8 12 4 12 -15 0z"/>
<path d="M2813 375 c0 -8 4 -12 9 -9 5 3 6 10 3 15 -9 13 -12 11 -12 -6z"/>
<path d="M2046 361 c4 -14 2 -21 -4 -17 -5 3 -18 -7 -27 -22 -10 -15 -12 -22
-5 -15 11 10 16 9 25 -4 12 -16 40 -10 30 7 -3 4 4 10 15 13 13 3 25 -2 35
-16 8 -12 15 -17 15 -13 0 5 -7 18 -17 28 -15 17 -15 18 5 18 12 0 21 -5 20
-12 -2 -6 5 -13 15 -14 12 -1 13 0 2 3 -8 2 -13 9 -9 14 3 5 -2 12 -10 15 -20
8 -89 -24 -81 -37 4 -5 2 -9 -3 -9 -6 0 -13 7 -16 16 -8 22 -8 26 3 19 6 -3
15 4 21 16 7 12 8 19 2 15 -6 -3 -13 0 -16 6 -3 7 -3 2 0 -11z"/>
<path d="M2280 371 c0 -10 19 -25 25 -20 1 2 -3 10 -11 17 -8 7 -14 8 -14 3z"/>
<path d="M2499 368 c15 -21 31 -23 31 -6 0 6 -3 8 -7 5 -3 -4 -13 -1 -22 6
-14 11 -14 10 -2 -5z"/>
<path d="M2710 376 c0 -2 8 -10 18 -17 15 -13 16 -12 3 4 -13 16 -21 21 -21
13z"/>
<path d="M336 354 c-5 -13 -4 -14 7 -6 8 7 18 8 22 4 5 -4 5 -1 1 6 -10 17
-23 15 -30 -4z"/>
<path d="M942 363 c-10 -4 -6 -13 13 -33 23 -24 25 -31 15 -47 -11 -17 -11
-17 -6 1 7 19 -9 46 -27 46 -5 0 -3 -8 6 -18 10 -11 13 -22 7 -33 -13 -22 15
-21 35 1 14 15 13 19 -3 41 -11 13 -17 30 -15 37 5 13 -3 14 -25 5z"/>
<path d="M2076 353 c-6 -14 -5 -15 5 -6 7 7 10 15 7 18 -3 3 -9 -2 -12 -12z"/>
<path d="M2173 356 c3 -8 2 -17 -4 -20 -5 -2 -4 -3 2 -2 15 3 21 36 7 36 -6 0
-8 -6 -5 -14z"/>
<path d="M2616 362 c-3 -5 1 -9 9 -9 8 0 12 4 9 9 -3 4 -7 8 -9 8 -2 0 -6 -4
-9 -8z"/>
<path d="M430 349 c0 -5 5 -7 10 -4 6 3 10 8 10 11 0 2 -4 4 -10 4 -5 0 -10
-5 -10 -11z"/>
<path d="M1970 350 c0 -5 5 -10 11 -10 5 0 7 5 4 10 -3 6 -8 10 -11 10 -2 0
-4 -4 -4 -10z"/>
<path d="M2270 340 c0 -5 5 -10 11 -10 5 0 7 5 4 10 -3 6 -8 10 -11 10 -2 0
-4 -4 -4 -10z"/>
<path d="M2347 329 c6 -22 20 -26 20 -4 0 8 -6 16 -13 19 -7 3 -10 -2 -7 -15z"/>
<path d="M2546 342 c-3 -5 1 -9 9 -9 8 0 15 4 15 9 0 4 -4 8 -9 8 -6 0 -12 -4
-15 -8z"/>
<path d="M1990 330 c-9 -6 -10 -10 -3 -10 6 0 15 5 18 10 8 12 4 12 -15 0z"/>
<path d="M2250 331 c0 -7 -4 -10 -8 -7 -5 3 -9 -2 -9 -10 0 -13 2 -13 16 0 8
9 12 19 8 22 -4 4 -7 2 -7 -5z"/>
<path d="M2412 331 c-11 -7 -11 -9 0 -14 9 -3 15 1 15 9 0 8 -1 14 -1 14 -1 0
-7 -4 -14 -9z"/>
<path d="M2595 331 c-3 -5 -2 -12 3 -15 5 -3 9 1 9 9 0 17 -3 19 -12 6z"/>
<path d="M2186 322 c-3 -4 4 -9 15 -9 23 -2 25 3 4 10 -8 4 -16 3 -19 -1z"/>
<path d="M2679 313 c-13 -16 -12 -17 4 -4 9 7 17 15 17 17 0 8 -8 3 -21 -13z"/>
<path d="M1986 285 c9 -14 21 -25 26 -25 5 0 2 7 -6 16 -9 8 -16 20 -16 25 0
5 -5 9 -10 9 -6 0 -3 -11 6 -25z"/>
<path d="M2079 292 c-13 -15 -12 -16 3 -4 14 11 17 10 21 -5 4 -16 5 -16 6 -1
2 25 -15 30 -30 10z"/>
<path d="M2253 295 c-3 -9 -3 -18 -1 -21 3 -3 8 4 11 16 6 23 -1 27 -10 5z"/>
<path d="M2315 301 c-9 -15 15 -25 28 -12 9 9 7 10 -7 5 -13 -5 -17 -4 -12 4
4 7 5 12 2 12 -3 0 -7 -4 -11 -9z"/>
<path d="M2390 306 c0 -2 7 -7 16 -10 8 -3 12 -2 9 4 -6 10 -25 14 -25 6z"/>
<path d="M2813 289 c-2 -23 3 -25 10 -4 4 8 3 16 -1 19 -4 3 -9 -4 -9 -15z"/>
<path d="M1853 294 c4 -4 -3 -21 -14 -38 l-21 -31 26 30 c28 33 32 45 14 45
-6 0 -8 -3 -5 -6z"/>
<path d="M2189 279 c-6 -27 10 -34 28 -14 4 4 3 5 -4 1 -7 -4 -13 2 -15 16 -3
22 -4 22 -9 -3z"/>
<path d="M2373 287 c0 -7 9 -14 20 -14 11 -1 18 -1 16 0 -2 2 -11 8 -20 15
-12 9 -16 9 -16 -1z"/>
<path d="M710 280 c0 -5 5 -10 10 -10 6 0 10 -11 10 -24 0 -27 15 -42 25 -26
4 6 11 8 16 4 5 -3 6 -10 3 -16 -4 -7 -2 -8 5 -4 9 6 9 11 1 21 -7 8 -9 19 -5
24 3 7 0 8 -9 5 -9 -3 -20 3 -28 15 -14 22 -28 28 -28 11z m45 -39 c3 -5 1
-12 -5 -16 -5 -3 -10 1 -10 9 0 18 6 21 15 7z"/>
<path d="M1950 280 c0 -5 10 -14 23 -20 20 -10 20 -10 5 3 -10 8 -15 17 -11
20 3 4 1 7 -5 7 -7 0 -12 -4 -12 -10z"/>
<path d="M2020 280 c8 -5 20 -10 25 -10 6 0 3 5 -5 10 -8 5 -19 10 -25 10 -5
0 -3 -5 5 -10z"/>
<path d="M2140 286 c0 -2 7 -7 16 -10 8 -3 12 -2 9 4 -6 10 -25 14 -25 6z"/>
<path d="M2519 273 c-13 -16 -12 -17 4 -4 16 13 21 21 13 21 -2 0 -10 -8 -17
-17z"/>
<path d="M2550 280 c0 -5 5 -10 11 -10 5 0 7 5 4 10 -3 6 -8 10 -11 10 -2 0
-4 -4 -4 -10z"/>
<path d="M1746 259 c-10 -10 -25 -15 -35 -12 -9 4 -13 3 -10 -1 4 -4 17 -9 29
-11 12 -2 20 -2 17 2 -4 3 1 12 11 19 9 7 15 14 12 17 -3 2 -13 -4 -24 -14z"/>
<path d="M2295 269 c-4 -6 -5 -12 -2 -15 2 -3 7 2 10 11 7 17 1 20 -8 4z"/>
<path d="M1929 264 c6 -3 8 -11 5 -19 -3 -7 -1 -15 4 -19 5 -3 8 5 7 16 -1 12
-7 23 -14 24 -6 1 -7 0 -2 -2z"/>
<path d="M2068 263 c7 -3 16 -2 19 1 4 3 -2 6 -13 5 -11 0 -14 -3 -6 -6z"/>
<path d="M1661 244 c0 -11 3 -14 6 -6 3 7 2 16 -1 19 -3 4 -6 -2 -5 -13z"/>
<path d="M2090 250 c-9 -6 -10 -10 -3 -10 6 0 15 5 18 10 8 12 4 12 -15 0z"/>
<path d="M2262 244 c10 -10 20 -16 22 -13 3 3 -5 11 -17 18 -21 13 -21 12 -5
-5z"/>
<path d="M2376 247 c3 -10 9 -15 12 -12 3 3 0 11 -7 18 -10 9 -11 8 -5 -6z"/>
<path d="M1770 242 c0 -4 10 -9 22 -9 18 -2 20 0 8 7 -18 12 -30 13 -30 2z"/>
<path d="M2010 241 c0 -6 4 -12 8 -15 5 -3 9 1 9 9 0 8 -4 15 -9 15 -4 0 -8
-4 -8 -9z"/>
<path d="M2053 235 c0 -8 4 -12 9 -9 4 3 8 9 8 15 0 5 -4 9 -8 9 -5 0 -9 -7
-9 -15z"/>
<path d="M2415 240 c3 -5 8 -10 11 -10 2 0 4 5 4 10 0 6 -5 10 -11 10 -5 0 -7
-4 -4 -10z"/>
<path d="M1005 229 c-4 -6 -5 -12 -2 -15 2 -3 7 2 10 11 7 17 1 20 -8 4z"/>
<path d="M1295 220 c-3 -5 -1 -10 4 -10 6 0 11 5 11 10 0 6 -2 10 -4 10 -3 0
-8 -4 -11 -10z"/>
<path d="M1580 220 c-8 -5 -10 -10 -5 -10 6 0 17 5 25 10 8 5 11 10 5 10 -5 0
-17 -5 -25 -10z"/>
<path d="M1620 226 c0 -2 7 -6 15 -10 8 -3 15 -1 15 4 0 6 -7 10 -15 10 -8 0
-15 -2 -15 -4z"/>
<path d="M2173 215 c0 -8 4 -12 9 -9 5 3 6 10 3 15 -9 13 -12 11 -12 -6z"/>
<path d="M1393 205 c0 -8 4 -12 9 -9 5 3 6 10 3 15 -9 13 -12 11 -12 -6z"/>
<path d="M1215 200 c3 -5 8 -10 11 -10 2 0 4 5 4 10 0 6 -5 10 -11 10 -5 0 -7
-4 -4 -10z"/>
</g>
</svg>
